<?xml version="1.0" standalone="no"?>
<!DOCTYPE svg PUBLIC "-//W3C//DTD SVG 20010904//EN"
 "http://www.w3.org/TR/2001/REC-SVG-20010904/DTD/svg10.dtd">
<svg version="1.0" xmlns="http://www.w3.org/2000/svg"
 width="512.000000pt" height="512.000000pt" viewBox="0 0 512.000000 512.000000"
 preserveAspectRatio="xMidYMid meet">
<metadata>
Created by potrace 1.14, written by Peter Selinger 2001-2017
</metadata>
<g transform="translate(0.000000,512.000000) scale(0.100000,-0.100000)"
fill="#000000" stroke="none">
<path d="M3149 4426 c-2 -2 -24 -7 -49 -10 -129 -18 -294 -145 -357 -276 -84
-176 -64 -381 53 -530 232 -297 680 -256 854 78 128 247 23 562 -230 684 -41
20 -93 39 -115 43 -45 9 -151 16 -156 11z"/>
<path d="M2090 4084 c-13 -22 -38 -61 -55 -89 -45 -72 -267 -433 -295 -480
-13 -22 -28 -41 -32 -43 -4 -2 -8 -8 -8 -14 0 -6 -11 -26 -25 -44 -14 -18 -25
-35 -25 -38 0 -2 -22 -40 -48 -83 -27 -43 -164 -267 -306 -498 -142 -231 -268
-436 -281 -455 -13 -19 -85 -136 -160 -260 -76 -124 -148 -241 -160 -260 -13
-19 -56 -89 -97 -155 -176 -290 -273 -443 -279 -440 -3 2 -6 -2 -6 -10 0 -15
-141 -246 -158 -257 -5 -4 -7 -8 -3 -8 4 0 -27 -54 -68 -120 -41 -65 -74 -123
-74 -128 0 -4 1148 -8 2550 -8 1856 -1 2550 2 2550 10 0 7 -6 20 -14 31 -12
17 -239 398 -286 480 -10 17 -63 106 -119 198 -55 93 -101 171 -101 173 0 2
-15 28 -34 57 -63 96 -406 678 -406 688 0 5 -4 9 -9 9 -5 0 -11 6 -13 13 -2 6
-61 109 -132 227 -71 118 -134 224 -140 235 -6 11 -58 98 -115 193 l-104 172
-107 -180 c-59 -99 -111 -185 -114 -192 -3 -7 -14 -25 -24 -40 -9 -15 -61
-102 -116 -193 -80 -135 -101 -164 -111 -153 -21 22 -235 375 -235 387 0 6 -4
11 -8 11 -5 0 -14 10 -20 23 -6 12 -22 38 -34 59 -96 153 -295 476 -303 490
-25 45 -280 455 -290 468 -7 8 -23 35 -36 60 -13 25 -28 49 -32 55 -5 5 -28
41 -51 79 l-43 68 -23 -38z m265 -998 c125 -203 235 -382 244 -397 9 -15 65
-107 125 -204 60 -98 105 -180 100 -184 -33 -30 -368 -231 -379 -227 -7 2 -48
27 -91 54 -44 26 -86 51 -94 55 -8 4 -44 25 -79 47 -34 22 -65 40 -66 40 -2 0
-79 -45 -170 -100 -91 -55 -169 -100 -172 -100 -4 0 -78 46 -165 103 -87 56
-170 108 -183 115 -25 13 -35 42 -14 42 5 0 8 4 5 9 -3 4 3 16 14 26 11 10 20
22 20 26 0 8 41 73 60 96 5 7 10 16 10 20 0 5 15 31 33 59 19 28 37 57 40 65
4 8 16 28 26 44 10 17 114 185 231 375 117 190 224 362 237 384 14 21 28 34
33 30 4 -5 110 -175 235 -378z m1370 -713 c44 -74 87 -147 95 -162 32 -55 375
-628 397 -664 l23 -37 -37 -23 c-21 -12 -41 -21 -45 -19 -5 1 -8 -2 -8 -7 0
-10 -155 -111 -171 -111 -6 0 -83 44 -172 97 -88 53 -165 96 -171 96 -6 0 -85
-45 -176 -100 l-166 -99 -127 80 c-69 45 -127 84 -127 89 0 4 11 24 24 45 60
94 516 865 516 873 0 5 5 9 10 9 6 0 10 5 10 10 0 14 30 60 39 60 3 -1 42 -62
86 -137z"/>
</g>
</svg>
